<svg width="500" height="500" xmlns="http://www.w3.org/2000/svg">
  <defs></defs>
  <g>
    <title>Main</title>
    <rect stroke-width="1.5" width="500" height="500" id="svg_1" rx="100" style="fill: rgb(255, 255, 255);">
      <title>BackGround</title>
    </rect>
  </g>
  <g style="">
    <title>Guide</title>
    <line fill="none" stroke="#e5e5e5" stroke-width="1.5" fill-opacity="null" x1="0" y1="0" x2="500" y2="500" id="svg_2" stroke-linejoin="null" stroke-linecap="null" style=""></line>
    <line fill="none" stroke="#e5e5e5" stroke-width="1.5" fill-opacity="null" x1="0" y1="500" x2="500" y2="0" id="svg_3" stroke-linejoin="null" stroke-linecap="null" style=""></line>
    <line fill="none" stroke="#e5e5e5" stroke-width="1.5" fill-opacity="null" x1="30" y1="0" x2="30" y2="500" id="svg_4" stroke-linejoin="null" stroke-linecap="null" style=""></line>
    <line fill="none" stroke="#e5e5e5" stroke-width="1.5" fill-opacity="null" x1="0" y1="30" x2="500" y2="30" id="svg_5" stroke-linejoin="null" stroke-linecap="null"></line>
    <line fill="none" stroke="#e5e5e5" stroke-width="1.5" fill-opacity="null" x1="0" y1="470" x2="500" y2="470" id="svg_6" stroke-linejoin="null" stroke-linecap="null"></line>
    <line fill="none" stroke="#e5e5e5" stroke-width="1.5" fill-opacity="null" x1="470" y1="0" x2="470" y2="500" id="svg_7" stroke-linejoin="null" stroke-linecap="null"></line>
    <line fill="none" stroke="#e5e5e5" stroke-width="1.5" stroke-opacity="null" fill-opacity="null" x1="250" y1="0" x2="250" y2="500" id="svg_9" stroke-linejoin="null" stroke-linecap="null"></line>
    <line fill="none" stroke="#e5e5e5" stroke-width="1.5" stroke-opacity="null" fill-opacity="null" x1="0" y1="250" x2="500" y2="250" id="svg_10" stroke-linejoin="null" stroke-linecap="null"></line>
    <line fill="none" stroke="#e5e5e5" stroke-width="1.5" stroke-opacity="null" fill-opacity="null" x1="0" y1="140" x2="500" y2="140" id="line-1" stroke-linejoin="null" stroke-linecap="null"></line>
    <line fill="none" stroke="#e5e5e5" stroke-width="1.5" stroke-opacity="null" fill-opacity="null" x1="-430.521" y1="360.264" x2="69.479" y2="360.264" id="line-2" stroke-linejoin="null" stroke-linecap="null" transform="matrix(1, 0, 0, 1, 430.521354, -0.264044)"></line>
    <line fill="none" stroke="#e5e5e5" stroke-width="1.5" stroke-opacity="null" fill-opacity="null" x1="-96.485" y1="-2.325" x2="-96.485" y2="497.675" id="line-3" stroke-linejoin="null" stroke-linecap="null" transform="matrix(1, 0, 0, 1, 236.485397, 2.324721)"></line>
    <line fill="none" stroke="#e5e5e5" stroke-width="1.5" stroke-opacity="null" fill-opacity="null" x1="360" y1="0" x2="360" y2="500" id="line-4" stroke-linejoin="null" stroke-linecap="null"></line>
    <circle style="fill: none; stroke: rgb(229, 229, 229);" cx="250" cy="250" r="50"></circle>
    <circle style="fill: none; stroke: rgb(229, 229, 229);" cx="-386.329" cy="298.697" r="110" transform="matrix(1, 0, 0, 1, 636.32926, -48.696651)"></circle>
    <circle style="fill: none; stroke: rgb(229, 229, 229);" cx="-131.686" cy="295.11" r="155" transform="matrix(1, 0, 0, 1, 381.686408, -45.110132)"></circle>
    <circle style="fill: none; stroke: rgb(229, 229, 229);" cx="-459.116" cy="317.964" r="220" transform="matrix(1, 0, 0, 1, 709.115569, -67.964059)"></circle>
    <ellipse fill="none" stroke="#e5e5e5" stroke-width="1.5" stroke-opacity="null" fill-opacity="null" cx="431" cy="431" id="svg_8" rx="100" ry="100"></ellipse>
  </g>
</svg>